<?xml version="1.0" encoding="UTF-8"?>
<svg id="Layer_2" data-name="Layer 2" xmlns="http://www.w3.org/2000/svg" viewBox="0 0 511.06 256.52">
  <defs>
    <style>
      .cls-1 {
        fill: #ffce6c;
      }
    </style>
  </defs>
  <g id="Layer_1-2" data-name="Layer 1">
    <g>
      <path class="cls-1" d="m117.71,2.93v73.26h-37.61v-40.64c0-.06-.02-.1-.05-.1h-.1s-.05.03-.05.1l-9.57,40.64h-24.91c-1.63-6.77-3.22-13.51-4.79-20.22-1.56-6.71-3.16-13.41-4.79-20.12,0-.06-.03-.1-.1-.1s-.1.03-.1.1v40.34H0V2.93h52.06c.98,4.04,1.92,8.06,2.83,12.06.91,4,1.84,8.03,2.78,12.06.94,4.04,1.87,8.08,2.78,12.11,0,.07.02.11.05.15.03.03.06.03.1,0s.05-.08.05-.15l7.81-36.24h49.23Z"/>
      <path class="cls-1" d="m201.03,2.93c1.17,4.04,2.33,8.09,3.47,12.16,1.14,4.07,2.28,8.14,3.42,12.21,1.14,4.07,2.3,8.14,3.47,12.21,1.17,4.07,2.33,8.14,3.47,12.21,1.14,4.07,2.28,8.14,3.42,12.21,1.14,4.07,2.3,8.16,3.47,12.26h-43.57l-1.66-9.57h-13.28l-1.66,9.57h-41.71c1.17-4.1,2.33-8.19,3.47-12.26,1.14-4.07,2.28-8.14,3.42-12.21,1.14-4.07,2.28-8.14,3.42-12.21,1.14-4.07,2.28-8.14,3.42-12.21,1.14-4.07,2.28-8.14,3.42-12.21,1.14-4.07,2.26-8.12,3.37-12.16h60.66Zm-36.63,56.85h10.84c.06,0,.1-.03.1-.1-.52-3.19-.99-6.01-1.42-8.45-.42-2.44-.86-5.05-1.32-7.81-.46-2.77-.88-5.39-1.27-7.86-.39-2.47-.88-5.27-1.47-8.4h-.1c-.52,3.13-.99,5.93-1.42,8.4-.42,2.48-.86,5.1-1.32,7.86-.46,2.77-.88,5.37-1.27,7.81-.39,2.44-.85,5.26-1.37,8.45v.1Z"/>
      <path class="cls-1" d="m264.42,47.28c0,.07.02.11.05.15.03.03.08.05.15.05h38.1v28.72h-78.83V2.93h40.54v44.35Z"/>
      <path class="cls-1" d="m388.57,5.08c7.94,3.39,13.9,8.04,17.88,13.97,3.97,5.93,5.96,12.73,5.96,20.42,0,4.17-.62,8.19-1.86,12.06-1.24,3.88-3.19,7.49-5.86,10.84-2.67,3.35-6.12,6.29-10.35,8.79-4.23,2.51-9.3,4.46-15.19,5.86-5.89,1.4-12.72,2.1-20.46,2.1-5.54,0-10.6-.38-15.19-1.12-4.59-.75-8.74-1.79-12.45-3.13s-6.98-2.95-9.82-4.83c-2.83-1.89-5.27-3.99-7.33-6.3-2.05-2.31-3.75-4.77-5.08-7.38-1.34-2.6-2.31-5.34-2.93-8.21-.62-2.86-.93-5.76-.93-8.69,0-3.84.5-7.49,1.51-10.94,1.01-3.45,2.51-6.64,4.49-9.57,1.99-2.93,4.46-5.55,7.42-7.86,2.96-2.31,6.43-4.3,10.4-5.96,3.97-1.66,8.45-2.93,13.43-3.81,4.98-.88,10.47-1.32,16.46-1.32,11.98,0,21.94,1.69,29.89,5.08Zm-35.6,26.72c-1.6.49-2.87,1.14-3.81,1.95-.94.81-1.63,1.73-2.05,2.74-.42,1.01-.63,2.04-.63,3.08,0,1.37.39,2.7,1.17,4,.78,1.3,2.08,2.38,3.91,3.22,1.82.85,4.23,1.27,7.23,1.27,1.76,0,3.3-.16,4.64-.49,1.33-.32,2.47-.76,3.42-1.32.94-.55,1.72-1.2,2.34-1.95.62-.75,1.06-1.53,1.32-2.34.26-.81.39-1.64.39-2.49,0-.98-.21-1.95-.63-2.93-.42-.98-1.09-1.87-2-2.69-.91-.81-2.15-1.48-3.71-2-1.56-.52-3.48-.78-5.76-.78s-4.22.24-5.81.73Z"/>
      <path class="cls-1" d="m455.87,2.93v38.49c0,.98.21,1.82.63,2.54.42.72.98,1.32,1.66,1.81.68.49,1.47.86,2.34,1.12.88.26,1.77.39,2.69.39,1.89,0,3.58-.49,5.08-1.47,1.5-.98,2.25-2.41,2.25-4.3V2.93h40.54v46.2c0,5.02-1.35,9.39-4.05,13.14-2.7,3.75-6.33,6.87-10.89,9.38-4.56,2.51-9.69,4.38-15.38,5.62-5.7,1.24-11.54,1.86-17.53,1.86-4.75,0-9.46-.39-14.12-1.17-4.66-.78-9.02-1.99-13.09-3.61-4.07-1.63-7.65-3.63-10.75-6.01-3.09-2.38-5.52-5.18-7.28-8.4-1.76-3.22-2.64-6.82-2.64-10.79V2.93h40.54Z"/>
      <path class="cls-1" d="m61.83,93.1c6.06,0,11.35.83,15.87,2.49,4.53,1.66,8.27,3.91,11.23,6.74,2.96,2.83,5.19,6.04,6.69,9.62,1.5,3.58,2.25,7.29,2.25,11.14,0,4.1-.77,7.99-2.3,11.67-1.53,3.68-3.81,6.95-6.84,9.82-3.03,2.87-6.79,5.13-11.28,6.79-4.49,1.66-9.7,2.49-15.63,2.49h-21c-.07.07-.11.1-.15.1s-.05.03-.05.1v12.31H0v-73.26h61.83Zm-12.01,39.56c1.95,0,3.6-.34,4.93-1.03,1.33-.68,2.33-1.56,2.98-2.64.65-1.07.98-2.16.98-3.27,0-1.17-.33-2.26-.98-3.27-.65-1.01-1.63-1.84-2.93-2.49-1.3-.65-2.96-.98-4.98-.98h-8.99c-.07,0-.11.02-.15.05-.03.03-.05.08-.05.15v13.38c.06,0,.13.03.2.1h8.99Z"/>
      <path class="cls-1" d="m182.76,117.71h-42.59v5.57h41.12v13.77h-41.03c-.07,0-.1.02-.1.05v5.62h43.17v23.64h-82.74v-73.26h82.15v24.62Z"/>
      <path class="cls-1" d="m274.38,93.1v29.7h-23.54c-.07.07-.11.1-.15.1-.03,0-.05.03-.05.1v43.37h-40.54v-43.37c0-.06-.02-.11-.05-.15-.03-.03-.08-.05-.15-.05h-23.54v-29.7h88.01Z"/>
      <path class="cls-1" d="m54.21,183.26h40.54v73.26h-40.54v-23.83c0-.06-.02-.11-.05-.15-.03-.03-.08-.05-.15-.05h-13.38c-.07,0-.1.02-.1.05v23.98H0v-73.26h40.54v28.67s.03.05.1.05h13.38c.06,0,.11-.02.15-.05.03-.03.05-.08.05-.15v-28.52Z"/>
      <path class="cls-1" d="m178.07,183.26c1.17,4.04,2.33,8.09,3.47,12.16,1.14,4.07,2.28,8.14,3.42,12.21,1.14,4.07,2.3,8.14,3.47,12.21,1.17,4.07,2.33,8.14,3.47,12.21,1.14,4.07,2.28,8.14,3.42,12.21,1.14,4.07,2.3,8.16,3.47,12.26h-43.57l-1.66-9.57h-13.28l-1.66,9.57h-41.71c1.17-4.1,2.33-8.19,3.47-12.26,1.14-4.07,2.28-8.14,3.42-12.21,1.14-4.07,2.28-8.14,3.42-12.21,1.14-4.07,2.28-8.14,3.42-12.21,1.14-4.07,2.28-8.14,3.42-12.21,1.14-4.07,2.26-8.12,3.37-12.16h60.66Zm-36.63,56.85h10.84c.06,0,.1-.03.1-.1-.52-3.19-.99-6.01-1.42-8.45-.42-2.44-.86-5.05-1.32-7.81-.46-2.77-.88-5.39-1.27-7.86-.39-2.47-.88-5.27-1.47-8.4h-.1c-.52,3.13-.99,5.93-1.42,8.4-.42,2.48-.86,5.1-1.32,7.86-.46,2.77-.88,5.37-1.27,7.81-.39,2.44-.85,5.26-1.37,8.45v.1Z"/>
      <path class="cls-1" d="m299.39,183.26c-1.43,4.88-2.88,9.77-4.35,14.65-1.46,4.88-2.93,9.77-4.4,14.65-1.47,4.88-2.93,9.77-4.4,14.65-1.47,4.88-2.93,9.77-4.4,14.65-1.47,4.88-2.95,9.77-4.44,14.65h-56.56c-2.41-8.14-4.83-16.28-7.28-24.42-2.44-8.14-4.87-16.28-7.28-24.42-2.41-8.14-4.85-16.28-7.33-24.42h43.57c.39,2.54.8,5.06,1.22,7.57.42,2.51.83,5.03,1.22,7.57.39,2.54.78,5.08,1.17,7.62s.78,5.08,1.17,7.62.8,5.06,1.22,7.57c.42,2.51.83,5.03,1.22,7.57h.2c.33-2.15.67-4.31,1.03-6.5.36-2.18.7-4.35,1.03-6.5.33-2.15.67-4.31,1.03-6.5.36-2.18.72-4.36,1.07-6.54.36-2.18.7-4.35,1.03-6.5.33-2.15.67-4.31,1.03-6.5.36-2.18.7-4.35,1.03-6.5h42.2Z"/>
      <path class="cls-1" d="m383.49,207.88h-42.59v5.57h41.12v13.77h-41.03c-.07,0-.1.02-.1.05v5.62h43.17v23.64h-82.74v-73.26h82.15v24.62Z"/>
      <path class="cls-1" d="m445.52,183.26h37.61v73.26h-45.23l-12.31-35.17c0-.06-.02-.1-.05-.1h-.1s-.05.03-.05.1v35.17h-37.61v-73.26h43.76l13.77,40.54h.15s.05-.03.05-.1v-40.44Z"/>
    </g>
  </g>
</svg>